<?xml version="1.0" standalone="no"?>
<!DOCTYPE svg PUBLIC "-//W3C//DTD SVG 20010904//EN"
 "http://www.w3.org/TR/2001/REC-SVG-20010904/DTD/svg10.dtd">
<svg version="1.0" xmlns="http://www.w3.org/2000/svg"
 width="700.000000pt" height="440.000000pt" viewBox="0 0 700.000000 440.000000"
 preserveAspectRatio="xMidYMid meet">

<g transform="translate(0.000000,440.000000) scale(0.100000,-0.100000)"
fill="#000000" stroke="none">
<path d="M1930 2603 c-8 -4 -31 -21 -50 -39 l-35 -33 0 -176 0 -176 -62 7
c-75 8 -119 -5 -160 -49 l-31 -32 -4 -161 c-3 -150 -2 -163 17 -184 38 -43 74
-50 248 -50 l164 0 45 30 46 31 30 -31 30 -30 190 0 189 0 44 34 c60 48 66 74
60 244 -6 142 -6 144 -34 168 -26 22 -36 24 -148 24 l-119 0 15 24 c14 21 16
51 13 186 l-3 162 -33 29 -32 29 -183 -1 c-100 0 -189 -3 -197 -6z m400 -43
c16 -16 20 -33 20 -82 0 -35 2 -101 4 -148 4 -76 4 -79 -4 -25 -4 33 -8 95 -9
138 -1 73 -3 81 -30 108 -18 18 -24 29 -15 29 8 0 23 -9 34 -20z m-48 -16 c9
-3 21 -19 27 -37 13 -39 19 -287 8 -304 -6 -10 -53 -13 -178 -13 -177 0 -218
8 -233 45 -3 9 -6 84 -6 166 l0 148 158 3 c151 3 187 1 224 -8z m-405 -167
c-2 -23 -3 -1 -3 48 0 50 1 68 3 42 2 -26 2 -67 0 -90z m21 -169 c14 -16 13
-18 -2 -18 -18 0 -36 38 -35 73 0 18 2 17 11 -8 6 -16 17 -38 26 -47z m698
-66 c19 -12 34 -49 33 -79 -1 -27 -1 -26 -10 7 -6 19 -21 45 -35 58 -23 20
-14 32 12 14z m-558 -36 c16 -21 20 -48 25 -162 4 -87 2 -144 -4 -156 -10 -18
-21 -19 -191 -16 l-180 3 -23 27 c-23 26 -23 32 -18 165 2 76 6 144 8 151 3 9
49 12 184 12 178 0 180 0 199 -24z m56 -8 c8 -43 3 -44 -16 -3 -12 26 -12 35
-3 35 7 0 15 -14 19 -32z m46 23 c0 -6 -4 -13 -10 -16 -5 -3 -10 1 -10 9 0 9
5 16 10 16 6 0 10 -4 10 -9z m433 -23 c14 -16 17 -39 17 -122 0 -55 3 -117 6
-136 3 -23 0 -42 -9 -55 -14 -18 -28 -19 -178 -20 -181 -1 -216 6 -230 42 -14
38 0 296 18 310 10 8 63 10 186 6 156 -5 174 -7 190 -25z m-950 -78 c4 -41 3
-56 -3 -40 -8 25 -14 117 -6 109 2 -2 6 -33 9 -69z m524 -52 c-2 -18 -4 -4 -4
32 0 36 2 50 4 33 2 -18 2 -48 0 -65z m482 -92 c2 -73 -6 -52 -12 34 -3 46 -2
63 3 45 4 -16 8 -52 9 -79z m-532 12 c-2 -18 -4 -6 -4 27 0 33 2 48 4 33 2
-15 2 -42 0 -60z m-456 -104 c7 -9 27 -23 44 -30 l30 -13 -28 -1 c-46 0 -77
40 -76 97 l2 48 6 -42 c4 -23 14 -49 22 -59z m552 -35 c27 -18 28 -20 7 -14
-40 11 -60 35 -59 69 l1 31 9 -33 c6 -20 23 -41 42 -53z"/>
<path d="M2094 2465 c4 -10 -1 -15 -14 -15 -42 0 -18 -18 30 -22 28 -3 52 -7
54 -9 2 -2 6 -26 8 -52 l6 -48 -62 3 -61 3 -3 38 c-3 40 -17 49 -27 18 -4 -12
-12 -18 -21 -14 -11 4 -14 -4 -14 -35 0 -56 25 -72 110 -72 57 1 69 4 100 31
34 29 35 31 32 97 -3 81 -14 92 -90 92 -44 0 -53 -3 -48 -15z m112 -81 c1 -53
1 -54 -3 -9 -2 27 -10 56 -16 64 -10 11 -9 13 3 9 11 -3 15 -21 16 -64z m-159
-83 c17 -10 16 -10 -3 -11 -22 0 -35 18 -33 48 0 13 3 11 9 -5 5 -12 17 -26
27 -32z"/>
<path d="M1800 2045 c0 -9 -9 -15 -21 -15 -12 0 -19 -5 -17 -12 3 -9 30 -14
75 -16 77 -3 83 -8 83 -75 l0 -28 -62 3 -63 3 -3 38 c-4 43 -22 51 -22 10 0
-20 -3 -24 -9 -14 -14 21 -31 3 -31 -33 0 -52 24 -66 111 -66 67 0 79 3 107
26 30 25 32 31 32 95 0 90 -9 99 -106 99 -59 0 -74 -3 -74 -15z m148 -72 c-1
-54 -2 -55 -5 -13 -3 24 -9 50 -15 57 -8 10 -6 13 6 13 13 0 16 -10 14 -57z
m-159 -91 c14 -13 14 -13 -4 -10 -13 2 -21 12 -22 28 -1 14 0 18 3 10 4 -8 14
-21 23 -28z"/>
<path d="M2340 2053 c-8 -3 -30 -17 -47 -31 -32 -24 -33 -27 -33 -98 0 -88 7
-94 102 -94 56 0 70 4 106 31 39 29 42 34 42 80 0 37 -4 49 -15 49 -11 0 -15
-13 -17 -47 -1 -38 -2 -41 -5 -15 -6 43 -29 36 -26 -7 l1 -32 -61 3 -62 3 0
50 0 50 53 3 c37 2 52 7 52 18 0 8 9 14 21 14 12 0 19 5 17 13 -5 13 -101 21
-128 10z m-43 -95 c-3 -7 -5 -2 -5 12 0 14 2 19 5 13 2 -7 2 -19 0 -25z m17
-97 c-7 -9 -24 13 -24 32 0 21 1 21 13 -3 8 -14 12 -27 11 -29z"/>
<path d="M2860 2351 l0 -241 80 0 80 0 0 49 0 49 66 12 c118 22 204 106 204
198 0 49 -35 108 -82 139 -40 27 -47 28 -195 31 l-153 4 0 -241z m218 173 c20
-14 22 -23 22 -115 0 -93 -2 -102 -25 -124 -50 -50 -55 -39 -55 115 0 127 2
140 18 140 10 0 28 -7 40 -16z"/>
<path d="M3482 2580 c-99 -23 -162 -113 -162 -230 1 -100 43 -174 123 -217 43
-22 161 -23 202 -1 41 22 89 76 106 118 21 53 17 167 -8 215 -51 96 -152 141
-261 115z m98 -54 c16 -21 16 -341 0 -361 -7 -8 -26 -15 -41 -15 -42 0 -49 27
-49 198 0 117 3 152 16 170 17 25 56 29 74 8z"/>
<path d="M3819 2400 c-1 -104 -1 -197 -1 -205 0 -8 0 -31 1 -50 l1 -35 75 0
75 0 0 165 c0 185 3 194 65 161 23 -13 43 -16 64 -11 l31 7 0 -161 0 -161 80
0 80 0 0 240 0 241 -77 -3 -78 -3 -5 -55 c-5 -60 -24 -75 -54 -44 -13 12 -28
15 -62 11 l-44 -5 0 49 0 49 -75 0 -75 0 -1 -190z"/>
<path d="M4360 2350 l0 -240 79 0 79 0 17 43 c46 114 130 297 137 297 4 0 8
-76 8 -170 l0 -170 75 0 75 0 0 240 0 241 -76 -3 -77 -3 -49 -115 c-27 -63
-61 -140 -76 -170 l-27 -55 -5 170 -5 170 -77 3 -78 3 0 -241z"/>
<path d="M4910 2350 l0 -240 75 0 75 0 0 154 c0 85 3 161 6 170 8 20 33 20 62
0 14 -9 37 -14 60 -12 l37 3 3 -157 3 -158 74 0 75 0 0 240 0 240 -75 0 -75 0
0 -49 c0 -63 -18 -81 -56 -56 -19 12 -39 16 -65 12 -42 -6 -49 2 -49 59 l0 34
-75 0 -75 0 0 -240z"/>
<path d="M4554 1785 c0 -60 1 -84 3 -52 2 32 2 81 0 110 -2 29 -3 3 -3 -58z"/>
<path d="M2861 1863 c-31 -26 -32 -90 -2 -115 24 -19 71 -25 71 -8 0 5 -7 7
-15 4 -8 -4 -26 1 -40 10 -54 35 -18 125 43 109 17 -4 23 -2 18 6 -11 17 -51
13 -75 -6z"/>
<path d="M2960 1874 c0 -5 7 -19 15 -30 8 -10 15 -14 15 -8 0 5 -7 19 -15 30
-8 10 -15 14 -15 8z"/>
<path d="M3046 1835 c-20 -50 -23 -52 -43 -27 -13 15 -13 15 -4 -5 16 -32 14
-41 -16 -58 l-28 -15 25 2 c20 2 32 17 59 71 19 37 32 70 29 72 -3 3 -13 -15
-22 -40z"/>
<path d="M3100 1806 l0 -76 85 0 85 0 -2 78 -2 77 -5 -70 c-6 -70 -6 -70 -36
-70 -29 0 -30 2 -32 50 -3 87 -6 92 -12 20 -6 -67 -7 -70 -33 -73 l-28 -3 0
65 c0 36 -4 68 -10 71 -6 4 -10 -22 -10 -69z"/>
<path d="M3322 1808 c-1 -43 1 -78 6 -78 4 0 26 28 50 62 l42 62 1 -54 2 -55
7 60 c4 33 3 64 -1 68 -4 5 -27 -20 -50 -55 l-44 -63 -6 65 -6 65 -1 -77z"/>
<path d="M3564 1785 c0 -55 1 -76 3 -47 2 29 2 74 0 100 -2 26 -3 2 -3 -53z"/>
<path d="M3700 1805 c0 -43 4 -75 10 -75 6 0 10 13 10 28 0 23 6 30 33 37 60
18 45 85 -19 85 l-34 0 0 -75z m61 55 c25 -14 24 -36 -1 -50 -27 -15 -40 -5
-40 31 0 31 9 35 41 19z"/>
<path d="M3852 1864 c-19 -13 -23 -23 -20 -62 2 -39 8 -49 31 -62 24 -13 30
-13 55 0 22 13 28 23 30 62 3 39 -1 49 -20 62 -12 9 -29 16 -38 16 -9 0 -26
-7 -38 -16z m80 -18 c4 -6 8 -26 8 -43 0 -24 -7 -37 -25 -49 -23 -15 -27 -15
-50 0 -33 22 -35 78 -3 100 23 16 57 12 70 -8z"/>
<path d="M4015 1843 c-14 -82 -17 -93 -33 -103 -16 -9 -16 -9 0 -10 12 0 21
13 28 43 23 88 25 92 47 95 21 3 22 -1 26 -65 l3 -68 2 73 2 72 -35 0 c-32 0
-35 -3 -40 -37z"/>
<path d="M4170 1872 c0 -4 12 -8 28 -7 26 0 27 -2 33 -70 l5 -70 2 78 2 77
-35 0 c-19 0 -35 -4 -35 -8z"/>
<path d="M4292 1808 c-2 -77 -2 -78 24 -78 36 0 64 17 64 40 0 26 -27 50 -55
50 -19 0 -24 6 -28 33 -2 17 -5 -3 -5 -45z m59 -8 c23 -13 24 -24 3 -44 -26
-27 -54 -20 -54 12 0 43 14 51 51 32z"/>
<path d="M4413 1805 c0 -44 2 -61 4 -37 2 23 2 59 0 80 -2 20 -4 1 -4 -43z"/>
<path d="M4692 1803 l2 -78 5 70 6 70 40 0 40 0 6 -65 6 -65 1 73 2 72 -55 0
-55 0 2 -77z"/>
<path d="M4840 1807 c0 -42 4 -77 9 -77 5 0 26 27 47 60 22 33 42 60 46 60 4
0 9 -28 11 -62 3 -62 3 -62 5 15 1 42 -2 77 -7 77 -5 0 -26 -27 -47 -59 -21
-33 -41 -58 -45 -55 -3 2 -7 27 -8 55 -1 83 -11 70 -11 -14z"/>
<path d="M5162 1808 l-2 -78 54 0 c44 0 55 -4 59 -17 4 -14 5 -13 6 4 0 12 -3
25 -9 28 -5 3 -11 34 -12 68 l-1 62 -6 -65 -6 -65 -35 0 -35 0 -6 70 -5 70 -2
-77z"/>
<path d="M5325 1810 c-15 -39 -25 -73 -22 -76 2 -3 8 7 11 22 6 23 11 26 46
22 36 -3 39 -2 34 17 -11 36 -25 53 -18 22 6 -26 4 -28 -17 -25 -28 4 -28 35
-1 56 11 8 13 15 5 23 -8 8 -18 -10 -38 -61z"/>
<path d="M5002 1803 l-2 -73 59 0 c54 0 60 -2 64 -22 4 -20 4 -20 6 4 0 15 -3
30 -9 33 -5 3 -11 34 -12 68 l-1 62 -6 -65 -6 -65 -40 0 -40 0 -6 65 -6 65 -1
-72z"/>
<path d="M4155 1800 c-4 -30 -13 -54 -23 -60 -10 -5 -12 -10 -6 -10 20 0 34
25 40 74 4 25 4 46 1 46 -3 0 -8 -23 -12 -50z"/>
</g>
</svg>
